<svg xmlns="http://www.w3.org/2000/svg" width="26" height="26" id="clock"><g fill="#fff" transform="translate(5 -1031.362)"><circle cx="8" cy="1044.362" r="13" fill="#1d67b1" fill-rule="evenodd"></circle><path fill="#154082" style="line-height:normal;text-indent:0;text-align:start;text-decoration-line:none;text-decoration-style:solid;text-decoration-color:#000;text-transform:none;block-progression:tb;isolation:auto;mix-blend-mode:normal" d="M15.787 25.682a13 13 0 0 0 .69-.157 13 13 0 0 0 1.234-.408 13 13 0 0 0 1.185-.531 13 13 0 0 0 1.127-.647 13 13 0 0 0 1.057-.755 13 13 0 0 0 .977-.858 13 13 0 0 0 .886-.951 13 13 0 0 0 .786-1.035 13 13 0 0 0 .68-1.108 13 13 0 0 0 .566-1.17 13 13 0 0 0 .445-1.22 13 13 0 0 0 .267-1.049l-7.74-7.74A6.978 6.978 0 0 0 13 6c-3.86 0-7 3.14-7 7 0 1.447.442 2.793 1.197 3.91v.002c.126.186.26.365.403.537v.002c.142.173.295.338.453.496l7.734 7.735z" color="#000" font-family="sans-serif" font-weight="400" transform="translate(-5 1031.362)"></path><path style="line-height:normal;text-indent:0;text-align:start;text-decoration-line:none;text-decoration-style:solid;text-decoration-color:#000;text-transform:none;block-progression:tb;isolation:auto;mix-blend-mode:normal" d="M8 1C4.14 1 1 4.14 1 8s3.14 7 7 7 7-3.14 7-7-3.14-7-7-7zm0 1c3.32 0 6 2.68 6 6s-2.68 6-6 6a5.994 5.994 0 0 1-6.002-6C1.998 4.68 4.68 2 8 2Zm-.5 1.002v3.59c-.579.209-1 .761-1 1.408 0 .822.678 1.5 1.5 1.5.647 0 1.198-.421 1.406-1h2.592v-1H9.406a1.514 1.514 0 0 0-.906-.908v-3.59h-1zM8 7.5c.282 0 .5.218.5.5 0 .282-.218.5-.5.5a.493.493 0 0 1-.5-.5c0-.282.218-.5.5-.5Z" color="#000" font-family="sans-serif" font-weight="400" overflow="visible" transform="translate(0 1036.362)"></path></g></svg>